# xmcd CD database file
#
# Track frame offsets:
#	150
#	17905
#	33752
#	52792
#	73827
#	90335
#	112665
#	131102
#	143747
#	159442
#	181002
#	211492
#	231675
#	246500
#	270045
#
# Disc length: 3947 seconds
#
# Revision: 0
# Processed by: cddbd v1.5PL3 Copyright (c) Steve Scherf et al.
# Submitted via: CDex 1.60beta1
#
DISCID=c30f690f
DTITLE=Michael White - Shake It and Break It
DYEAR=2000
DGENRE=Jazz
TTITLE0=Shake It and Break It
TTITLE1=Am I Blu
TTITLE2=Please Don't Talk About Me When I'm Gone
TTITLE3=In The Upper Garden
TTITLE4=Mama Inez
TTITLE5=It's A Sin To Tell A Lie
TTITLE6=Apex Blues
TTITLE7=Baby Won't You Please Come Home
TTITLE8=Girl Of My Dreams
TTITLE9=Exactly Like You
TTITLE10=Hindustan
TTITLE11=Streets Of The City
TTITLE12=Careless Love
TTITLE13=Sing On
TTITLE14=Royal Garden Blues
EXTD=YEAR: 2000
EXTT0=
EXTT1=
EXTT2=
EXTT3=
EXTT4=
EXTT5=
EXTT6=
EXTT7=
EXTT8=
EXTT9=
EXTT10=
EXTT11=
EXTT12=
EXTT13=
EXTT14=
PLAYORDER=
